<svg width="10" height="8" viewBox="0 0 10 8" fill="none" xmlns="http://www.w3.org/2000/svg">
<path fill-rule="evenodd" clip-rule="evenodd" d="M9.29251 0.987493C9.41249 1.10751 9.47989 1.27027 9.47989 1.43997C9.47989 1.60968 9.41249 1.77244 9.29251 1.89245L4.17251 7.01245C4.05249 7.13243 3.88973 7.19984 3.72003 7.19984C3.55032 7.19984 3.38757 7.13243 3.26755 7.01245L0.707549 4.45245C0.590967 4.33175 0.526459 4.17008 0.527917 4.00228C0.529375 3.83447 0.596684 3.67395 0.715345 3.55529C0.834006 3.43663 0.994526 3.36932 1.16233 3.36786C1.33014 3.3664 1.4918 3.43091 1.61251 3.54749L3.72003 5.65501L8.38755 0.987493C8.50757 0.867512 8.67032 0.80011 8.84003 0.80011C9.00973 0.80011 9.17249 0.867512 9.29251 0.987493Z" fill="white"/>
</svg>
