<svg width="14" height="13" viewBox="0 0 14 13" fill="none" xmlns="http://www.w3.org/2000/svg">
<path d="M13 12.5L9 8.5M10.3333 5.16667C10.3333 5.7795 10.2126 6.38634 9.97811 6.95252C9.74358 7.51871 9.39984 8.03316 8.9665 8.4665C8.53316 8.89984 8.01871 9.24358 7.45252 9.47811C6.88634 9.71263 6.2795 9.83333 5.66667 9.83333C5.05383 9.83333 4.447 9.71263 3.88081 9.47811C3.31462 9.24358 2.80018 8.89984 2.36683 8.4665C1.93349 8.03316 1.58975 7.51871 1.35523 6.95252C1.12071 6.38634 1 5.7795 1 5.16667C1 3.92899 1.49167 2.742 2.36683 1.86683C3.242 0.991665 4.42899 0.5 5.66667 0.5C6.90434 0.5 8.09133 0.991665 8.9665 1.86683C9.84167 2.742 10.3333 3.92899 10.3333 5.16667Z" stroke="#6B7280" stroke-linecap="round" stroke-linejoin="round"/>
</svg>
